<svg width="246" height="63" viewBox="0 0 246 63" fill="none" xmlns="http://www.w3.org/2000/svg">
<path d="M111.141 29.5703L111.422 16.2109C112.734 16.1172 113.727 16.0703 114.398 16.0703C116.617 16.0703 118.383 16.5703 119.695 17.5703C121.008 18.5547 121.664 20.1172 121.664 22.2578C121.664 27.1328 118.156 29.5703 111.141 29.5703ZM111.375 47.4062L111.141 31C112.391 30.9062 113.609 30.8594 114.797 30.8594C118.156 30.8594 120.828 31.4766 122.812 32.7109C124.797 33.9453 125.789 35.8906 125.789 38.5469C125.789 40.1094 125.5 41.4531 124.922 42.5781C124.344 43.6875 123.617 44.5469 122.742 45.1562C121.883 45.7656 120.766 46.25 119.391 46.6094C118.016 46.9531 116.734 47.1719 115.547 47.2656C114.375 47.3594 112.984 47.4062 111.375 47.4062ZM114.984 46.3984C116.391 46.3047 117.625 46.1406 118.688 45.9062C119.766 45.6719 120.789 45.2812 121.758 44.7344C122.742 44.1875 123.5 43.3984 124.031 42.3672C124.562 41.3203 124.828 40.0469 124.828 38.5469C124.828 36.9375 124.281 35.5859 123.188 34.4922C122.094 33.3828 120.805 32.6328 119.32 32.2422C117.836 31.8359 116.312 31.7109 114.75 31.8672L114.984 46.3984ZM114.984 17.0781L114.797 28.4453C118.734 27.8516 120.703 25.7891 120.703 22.2578C120.703 19.0234 118.797 17.2969 114.984 17.0781ZM101.438 49.1406C104.484 49.0469 108.117 49 112.336 49C113.742 49 115.008 48.9688 116.133 48.9062C117.258 48.8438 118.602 48.7109 120.164 48.5078C121.727 48.2891 123.094 47.9375 124.266 47.4531C125.438 46.9531 126.562 46.3359 127.641 45.6016C128.734 44.8516 129.57 43.875 130.148 42.6719C130.727 41.4531 131.016 40.0391 131.016 38.4297C131.016 35.9766 130.055 33.9688 128.133 32.4062C126.211 30.8281 123.844 29.8125 121.031 29.3594V29.1719C122.859 28.5938 124.328 27.7344 125.438 26.5938C126.562 25.4375 127.125 23.9922 127.125 22.2578C127.125 17.1172 123.219 14.5469 115.406 14.5469C114.797 14.5469 113.773 14.5781 112.336 14.6406C110.898 14.7031 109.305 14.7344 107.555 14.7344C105.82 14.7344 103.797 14.6719 101.484 14.5469C101.359 14.8281 101.359 15.1953 101.484 15.6484C105.078 15.9922 106.891 16.7422 106.922 17.8984C107.078 21.5703 107.156 25.9375 107.156 31C107.156 35.9531 107.062 40.8828 106.875 45.7891C106.844 46.9453 105.031 47.6953 101.438 48.0391C101.312 48.2891 101.312 48.6562 101.438 49.1406ZM100.828 13.5391C103.094 13.6328 105.234 13.6797 107.25 13.6797C109.266 13.6797 111.234 13.6641 113.156 13.6328C115.078 13.6016 116.391 13.5859 117.094 13.5859C118.406 13.5859 119.594 13.6328 120.656 13.7266C121.734 13.8203 122.93 14.0469 124.242 14.4062C125.555 14.75 126.656 15.2188 127.547 15.8125C128.453 16.4062 129.211 17.2578 129.82 18.3672C130.43 19.4609 130.734 20.7578 130.734 22.2578C130.734 25.0391 129.195 27.2812 126.117 28.9844C128.648 29.7188 130.695 30.8984 132.258 32.5234C133.836 34.1328 134.625 36.1016 134.625 38.4297C134.625 39.9453 134.367 41.3047 133.852 42.5078C133.336 43.6953 132.68 44.6875 131.883 45.4844C131.086 46.2656 130.07 46.9453 128.836 47.5234C127.602 48.0859 126.414 48.5234 125.273 48.8359C124.133 49.1328 122.82 49.3672 121.336 49.5391C119.852 49.7266 118.578 49.8438 117.516 49.8906C116.469 49.9375 115.305 49.9609 114.023 49.9609C110.305 49.9609 105.891 50.0234 100.781 50.1484C100.391 49.0703 100.391 48.0625 100.781 47.125C104.172 46.7812 105.883 46.3203 105.914 45.7422C106.102 40.8359 106.195 35.9219 106.195 31C106.195 25.9688 106.117 21.6172 105.961 17.9453C105.93 17.3672 104.188 16.9062 100.734 16.5625C100.469 15.5625 100.5 14.5547 100.828 13.5391ZM149.648 29.2188C151.258 29.2188 152.531 29.9922 153.469 31.5391C154.422 33.0703 154.898 35.4531 154.898 38.6875C154.898 41.9219 154.422 44.3047 153.469 45.8359C152.531 47.3672 151.258 48.1328 149.648 48.1328C148.758 48.1328 147.945 47.9453 147.211 47.5703C146.492 47.1953 145.875 46.6172 145.359 45.8359C144.859 45.0547 144.469 44.0781 144.188 42.9062C143.906 41.7188 143.766 40.3125 143.766 38.6875C143.766 37.0781 143.906 35.6797 144.188 34.4922C144.469 33.2891 144.859 32.3047 145.359 31.5391C145.875 30.7578 146.492 30.1797 147.211 29.8047C147.945 29.4141 148.758 29.2188 149.648 29.2188ZM149.648 49.6797C151.102 49.6797 152.406 49.4062 153.562 48.8594C154.719 48.3125 155.703 47.5547 156.516 46.5859C157.344 45.6016 157.977 44.4375 158.414 43.0938C158.852 41.75 159.07 40.2812 159.07 38.6875C159.07 37.0938 158.852 35.625 158.414 34.2812C157.977 32.9375 157.344 31.7812 156.516 30.8125C155.703 29.8281 154.719 29.0625 153.562 28.5156C152.406 27.9688 151.102 27.6953 149.648 27.6953C148.102 27.6953 146.703 27.9688 145.453 28.5156C144.203 29.0625 143.141 29.8203 142.266 30.7891C141.406 31.7578 140.742 32.9219 140.273 34.2812C139.805 35.625 139.57 37.0938 139.57 38.6875C139.57 40.2969 139.805 41.7734 140.273 43.1172C140.742 44.4609 141.406 45.625 142.266 46.6094C143.141 47.5781 144.203 48.3359 145.453 48.8828C146.703 49.4141 148.102 49.6797 149.648 49.6797ZM150.469 26.7344C152.359 26.7344 154.039 27.0234 155.508 27.6016C156.992 28.1797 158.242 29 159.258 30.0625C160.273 31.1094 161.047 32.3672 161.578 33.8359C162.109 35.3047 162.375 36.9219 162.375 38.6875C162.375 40.4375 162.109 42.0469 161.578 43.5156C161.047 44.9844 160.273 46.25 159.258 47.3125C158.258 48.3594 157.016 49.1719 155.531 49.75C154.047 50.3438 152.359 50.6406 150.469 50.6406C148.594 50.6406 146.914 50.3438 145.43 49.75C143.961 49.1719 142.719 48.3594 141.703 47.3125C140.703 46.25 139.938 44.9922 139.406 43.5391C138.875 42.0703 138.609 40.4531 138.609 38.6875C138.609 36.9219 138.875 35.3047 139.406 33.8359C139.938 32.3672 140.711 31.1094 141.727 30.0625C142.742 29 143.984 28.1797 145.453 27.6016C146.922 27.0234 148.594 26.7344 150.469 26.7344ZM147.07 38.6875C147.07 43.7344 148.203 46.5312 150.469 47.0781C152.781 46.5312 153.938 43.7344 153.938 38.6875C153.938 33.6875 152.781 30.8828 150.469 30.2734C148.203 30.8828 147.07 33.6875 147.07 38.6875ZM178.055 29.2188C179.664 29.2188 180.938 29.9922 181.875 31.5391C182.828 33.0703 183.305 35.4531 183.305 38.6875C183.305 41.9219 182.828 44.3047 181.875 45.8359C180.938 47.3672 179.664 48.1328 178.055 48.1328C177.164 48.1328 176.352 47.9453 175.617 47.5703C174.898 47.1953 174.281 46.6172 173.766 45.8359C173.266 45.0547 172.875 44.0781 172.594 42.9062C172.312 41.7188 172.172 40.3125 172.172 38.6875C172.172 37.0781 172.312 35.6797 172.594 34.4922C172.875 33.2891 173.266 32.3047 173.766 31.5391C174.281 30.7578 174.898 30.1797 175.617 29.8047C176.352 29.4141 177.164 29.2188 178.055 29.2188ZM178.055 49.6797C179.508 49.6797 180.812 49.4062 181.969 48.8594C183.125 48.3125 184.109 47.5547 184.922 46.5859C185.75 45.6016 186.383 44.4375 186.82 43.0938C187.258 41.75 187.477 40.2812 187.477 38.6875C187.477 37.0938 187.258 35.625 186.82 34.2812C186.383 32.9375 185.75 31.7812 184.922 30.8125C184.109 29.8281 183.125 29.0625 181.969 28.5156C180.812 27.9688 179.508 27.6953 178.055 27.6953C176.508 27.6953 175.109 27.9688 173.859 28.5156C172.609 29.0625 171.547 29.8203 170.672 30.7891C169.812 31.7578 169.148 32.9219 168.68 34.2812C168.211 35.625 167.977 37.0938 167.977 38.6875C167.977 40.2969 168.211 41.7734 168.68 43.1172C169.148 44.4609 169.812 45.625 170.672 46.6094C171.547 47.5781 172.609 48.3359 173.859 48.8828C175.109 49.4141 176.508 49.6797 178.055 49.6797ZM178.875 26.7344C180.766 26.7344 182.445 27.0234 183.914 27.6016C185.398 28.1797 186.648 29 187.664 30.0625C188.68 31.1094 189.453 32.3672 189.984 33.8359C190.516 35.3047 190.781 36.9219 190.781 38.6875C190.781 40.4375 190.516 42.0469 189.984 43.5156C189.453 44.9844 188.68 46.25 187.664 47.3125C186.664 48.3594 185.422 49.1719 183.938 49.75C182.453 50.3438 180.766 50.6406 178.875 50.6406C177 50.6406 175.32 50.3438 173.836 49.75C172.367 49.1719 171.125 48.3594 170.109 47.3125C169.109 46.25 168.344 44.9922 167.812 43.5391C167.281 42.0703 167.016 40.4531 167.016 38.6875C167.016 36.9219 167.281 35.3047 167.812 33.8359C168.344 32.3672 169.117 31.1094 170.133 30.0625C171.148 29 172.391 28.1797 173.859 27.6016C175.328 27.0234 177 26.7344 178.875 26.7344ZM175.477 38.6875C175.477 43.7344 176.609 46.5312 178.875 47.0781C181.188 46.5312 182.344 43.7344 182.344 38.6875C182.344 33.6875 181.188 30.8828 178.875 30.2734C176.609 30.8828 175.477 33.6875 175.477 38.6875ZM208.195 28.2109C208.008 28.6328 208.008 29 208.195 29.3125C208.68 29.375 209.125 29.5 209.531 29.6875C209.953 29.8594 210.25 30.1172 210.422 30.4609C210.594 30.7891 210.445 31.1641 209.977 31.5859L205.219 36.0859H203.344C203.312 31.4453 203.297 24.0859 203.297 14.0078C203.141 13.7266 202.867 13.5156 202.477 13.375C200.398 14.375 197.984 15.0156 195.234 15.2969C195.141 15.6875 195.141 16.0547 195.234 16.3984C197.344 16.5078 198.852 16.8281 199.758 17.3594C199.758 19.3125 199.781 22.25 199.828 26.1719C199.875 30.0938 199.898 33.625 199.898 36.7656C199.898 39.8906 199.828 42.8984 199.688 45.7891C199.656 46.9453 198.328 47.6953 195.703 48.0391C195.516 48.4297 195.516 48.7969 195.703 49.1406C197.766 49.0469 199.75 49 201.656 49C203.516 49 205.469 49.0469 207.516 49.1406C207.719 48.7969 207.719 48.4297 207.516 48.0391C204.828 47.6953 203.484 46.9453 203.484 45.7891C203.391 44.0547 203.344 41.3203 203.344 37.5859H205.172L211.547 45.7891C212.484 46.9766 211.977 47.6797 210.023 47.8984C209.836 48.2734 209.836 48.6406 210.023 49H215.391C217.156 49 219.141 49.0469 221.344 49.1406C221.531 48.7969 221.531 48.4297 221.344 48.0391C219.359 47.8203 217.969 47.4375 217.172 46.8906C216.719 46.5938 216.32 46.2266 215.977 45.7891L208.008 35.7578L212.133 31.5859C213.32 30.3672 215.289 29.6094 218.039 29.3125C218.164 28.9375 218.164 28.5703 218.039 28.2109C214.555 28.4141 211.273 28.4141 208.195 28.2109ZM207.773 27.25C211.992 27.4062 215.633 27.3906 218.695 27.2031C219.086 28.1719 219.109 29.1797 218.766 30.2266C215.844 30.5234 213.859 31.1953 212.812 32.2422L210.586 34.5156L219.094 45.2031C219.609 45.8438 220.062 46.2969 220.453 46.5625C220.859 46.8125 221.477 47.0156 222.305 47.1719C222.664 48.2031 222.633 49.1484 222.211 50.0078C219.008 49.8203 214.828 49.8203 209.672 50.0078C209.203 49.0234 209.141 48.0781 209.484 47.1719C210.422 46.9844 210.711 46.5234 210.352 45.7891L206.648 41.0781C206.648 43.0938 206.703 44.6641 206.812 45.7891C206.875 46.5234 207.273 46.9844 208.008 47.1719C208.32 48 208.289 48.9453 207.914 50.0078C203.648 49.9141 199.359 49.9141 195.047 50.0078C194.406 49.0547 194.375 48.1094 194.953 47.1719C197.438 46.8594 198.703 46.3828 198.75 45.7422C198.812 44.1953 198.844 40.75 198.844 35.4062C198.844 34.0938 198.836 32.1328 198.82 29.5234C198.805 26.8984 198.797 25.0078 198.797 23.8516V17.9453C197.766 17.6172 196.336 17.4062 194.508 17.3125C194.164 16.3906 194.164 15.3984 194.508 14.3359C196.695 14.1484 199.469 13.4453 202.828 12.2266C204.516 12.3516 205.773 12.8672 206.602 13.7734V33.3906L209.297 30.8594C209.516 30.6406 209.5 30.4766 209.25 30.3672C209.125 30.3359 208.609 30.2422 207.703 30.0859C207.234 29.1953 207.258 28.25 207.773 27.25ZM227.719 49.2812C226.969 49.5312 226.234 49.8359 225.516 50.1953C224.781 49.7422 224.297 49.2812 224.062 48.8125C224.094 48.7188 224.141 48.3984 224.203 47.8516C224.266 47.3047 224.328 46.6641 224.391 45.9297C224.469 45.1953 224.531 44.4375 224.578 43.6562C224.625 42.875 224.648 42.2109 224.648 41.6641C225.383 41.3203 226.516 41.1484 228.047 41.1484C228.219 41.1484 228.391 41.1484 228.562 41.1484C228.734 41.1484 228.914 41.1562 229.102 41.1719C230.227 44.8281 231.766 46.8125 233.719 47.125C234.516 47 235.125 46.7109 235.547 46.2578C235.984 45.7891 236.203 45.2656 236.203 44.6875C236.203 44.2656 236.086 43.875 235.852 43.5156C235.617 43.1406 235.305 42.7969 234.914 42.4844C234.523 42.1719 234.062 41.8828 233.531 41.6172C233.016 41.3516 232.469 41.0938 231.891 40.8438C231.312 40.5781 230.727 40.3281 230.133 40.0938C229.539 39.8438 228.969 39.5859 228.422 39.3203C227.844 39.0547 227.297 38.7344 226.781 38.3594C226.266 37.9688 225.812 37.5312 225.422 37.0469C225.031 36.5469 224.719 36 224.484 35.4062C224.266 34.8125 224.156 34.1719 224.156 33.4844C224.156 32.75 224.281 31.9844 224.531 31.1875C224.781 30.3906 225.211 29.6641 225.82 29.0078C226.43 28.3516 227.25 27.8125 228.281 27.3906C229.312 26.9531 230.609 26.7344 232.172 26.7344C233.906 26.7344 235.188 26.8281 236.016 27.0156L236.883 26.7344H238.477C238.68 28.0625 238.922 29.3047 239.203 30.4609C239.5 31.6172 239.828 32.6953 240.188 33.6953C239.516 34.3672 238.703 34.7031 237.75 34.7031C237.219 34.0781 236.727 33.5156 236.273 33.0156C235.82 32.5 235.383 32.0547 234.961 31.6797C234.555 31.3047 234.148 31 233.742 30.7656C233.352 30.5312 232.945 30.3672 232.523 30.2734C231.492 30.4453 230.977 30.9141 230.977 31.6797C230.977 32.2891 231.242 32.8203 231.773 33.2734C232.305 33.7266 232.969 34.1406 233.766 34.5156C234.562 34.8906 235.43 35.25 236.367 35.5938C237.32 35.9219 238.219 36.2734 239.062 36.6484C239.672 36.9141 240.242 37.2578 240.773 37.6797C241.32 38.1016 241.797 38.5938 242.203 39.1562C242.609 39.7031 242.93 40.3203 243.164 41.0078C243.398 41.6797 243.516 42.4062 243.516 43.1875C243.516 44.3438 243.219 45.3828 242.625 46.3047C242.047 47.2266 241.273 48.0078 240.305 48.6484C239.352 49.2891 238.258 49.7812 237.023 50.125C235.789 50.4688 234.531 50.6406 233.25 50.6406C231.047 50.6406 229.203 50.1875 227.719 49.2812ZM233.086 49.6797C235.039 49.6797 236.711 49.1016 238.102 47.9453C239.492 46.7891 240.188 45.4922 240.188 44.0547C240.188 42.6484 239.758 41.4375 238.898 40.4219C238.039 39.3906 237 38.5938 235.781 38.0312C234.562 37.4688 233.336 36.9531 232.102 36.4844C230.867 36 229.82 35.4375 228.961 34.7969C228.102 34.1562 227.672 33.4062 227.672 32.5469C227.672 31.4531 228.078 30.625 228.891 30.0625C229.703 29.5 230.656 29.2188 231.75 29.2188C232.906 29.2188 233.938 29.5781 234.844 30.2969C235.75 31.0156 236.859 32.1641 238.172 33.7422C238.594 33.7422 238.898 33.6406 239.086 33.4375C238.508 31.7812 237.648 30.4141 236.508 29.3359C235.383 28.2422 233.938 27.6953 232.172 27.6953C229.656 27.6953 227.852 28.2969 226.758 29.5C225.664 30.6875 225.117 32.0156 225.117 33.4844C225.117 34.7344 225.531 35.8047 226.359 36.6953C227.203 37.5703 228.211 38.25 229.383 38.7344C230.57 39.2031 231.75 39.6719 232.922 40.1406C234.094 40.6094 235.094 41.2188 235.922 41.9688C236.75 42.7188 237.164 43.625 237.164 44.6875C237.164 45.5781 236.781 46.375 236.016 47.0781C235.25 47.7812 234.18 48.1328 232.805 48.1328C231.148 48.1328 229.867 47.6094 228.961 46.5625C228.07 45.5 227.32 44.0234 226.711 42.1328C226.164 42.1328 225.797 42.1797 225.609 42.2734C225.609 43.3984 225.555 44.6875 225.445 46.1406C225.336 47.5938 225.227 48.4531 225.117 48.7188C225.227 48.875 225.375 49.0156 225.562 49.1406C226.203 48.6875 226.695 48.2109 227.039 47.7109C228.414 48.4766 229.484 48.9922 230.25 49.2578C231.031 49.5391 231.977 49.6797 233.086 49.6797Z" fill="#148867"/>
<path d="M16.656 18.472C18.8 18.472 20.752 18.744 22.512 19.288C24.272 19.8 25.712 20.568 26.832 21.592C28.848 23.416 30.256 25.416 31.056 27.592C31.888 29.736 32.304 32.488 32.304 35.848C32.304 36.552 32.208 37.192 32.016 37.768C31.856 38.344 31.584 39.08 31.2 39.976C30.72 40.968 30.432 41.752 30.336 42.328C29.696 43.448 28.64 44.52 27.168 45.544C25.728 46.568 24.16 47.4 22.464 48.04C20.768 48.68 19.28 49 18 49C11.824 49 7.424 46.888 4.8 42.664C4.064 41.48 3.488 40.248 3.072 38.968C2.688 37.688 2.496 36.44 2.496 35.224C2.496 31.96 3.072 29.128 4.224 26.728C5.408 24.296 7.04 22.408 9.12 21.064C10.368 20.328 11.664 19.72 13.008 19.24C14.384 18.728 15.6 18.472 16.656 18.472ZM7.488 35.368C7.488 37.096 7.872 38.52 8.64 39.64C9.44 40.76 10.656 41.976 12.288 43.288C13.632 43.8 14.544 44.136 15.024 44.296C15.504 44.424 16.048 44.488 16.656 44.488C19.888 44.488 22.464 43.608 24.384 41.848C26.304 40.088 27.264 37.672 27.264 34.6C27.264 32.168 26.992 30.248 26.448 28.84C25.904 27.432 24.928 26.168 23.52 25.048C22.784 24.44 21.84 23.992 20.688 23.704C19.568 23.416 18.352 23.272 17.04 23.272C15.056 23.272 13.344 23.864 11.904 25.048C10.464 26.2 9.36 27.704 8.592 29.56C7.856 31.416 7.488 33.352 7.488 35.368ZM59.2133 45.304C59.3733 45.368 59.6293 45.448 59.9813 45.544C60.3333 45.64 60.5893 45.736 60.7493 45.832C60.9093 45.928 60.9893 46.072 60.9893 46.264C61.0213 47.032 60.7333 47.672 60.1252 48.184C59.5493 48.664 58.8613 48.904 58.0613 48.904C56.8133 48.904 55.8373 48.568 55.1333 47.896C54.4293 47.224 53.9173 46.2 53.5973 44.824C53.4693 44.28 53.4053 43.528 53.4053 42.568C53.4053 42.024 53.4373 41.144 53.5013 39.928C53.5653 38.648 53.5973 37.624 53.5973 36.856C53.5973 35.736 53.2773 34.76 52.6373 33.928C52.0293 33.064 51.1653 32.632 50.0453 32.632C49.3733 32.632 48.6693 32.84 47.9333 33.256C47.1973 33.64 46.6853 34.12 46.3973 34.696C45.9173 35.624 45.5813 36.632 45.3893 37.72C45.0373 39.64 44.8613 41.64 44.8613 43.72C44.8613 44.712 44.8773 45.48 44.9093 46.024C44.9093 46.152 44.9093 46.408 44.9093 46.792C44.9413 47.144 44.9093 47.48 44.8133 47.8C44.7493 48.088 44.6213 48.36 44.4293 48.616C44.2693 48.776 44.0133 48.904 43.6613 49C43.3413 49.128 43.0373 49.192 42.7493 49.192C42.3013 49.192 41.7413 49 41.0693 48.616C40.3973 48.232 40.0133 47.8 39.9173 47.32L39.8693 46.504C39.8693 46.216 39.9013 45.88 39.9653 45.496C40.3493 43.256 40.5413 41.304 40.5413 39.64C40.5413 38.904 40.5253 38.328 40.4933 37.912L40.4453 35.656C40.4453 34.888 40.2533 34.152 39.8693 33.448C39.4853 32.712 39.0373 32.344 38.5253 32.344C38.3653 32.344 38.1413 32.408 37.8533 32.536C37.5653 32.632 37.3253 32.68 37.1333 32.68C36.8133 32.68 36.4613 32.52 36.0773 32.2C35.7253 31.88 35.5493 31.544 35.5493 31.192C35.5493 30.52 35.7733 29.976 36.2213 29.56C36.7013 29.176 37.1653 28.872 37.6133 28.648C38.0933 28.424 38.6373 28.312 39.2453 28.312C39.7573 28.312 40.1733 28.36 40.4933 28.456C40.8133 28.552 41.2453 28.76 41.7893 29.08C42.0773 29.24 42.4133 29.592 42.7973 30.136C43.1813 30.68 43.5013 31.448 43.7573 32.44C44.5893 30.904 45.6133 29.832 46.8293 29.224C48.0773 28.584 49.6613 28.264 51.5813 28.264C52.3173 28.264 53.1013 28.504 53.9333 28.984C54.7973 29.464 55.5333 30.024 56.1413 30.664C56.7173 31.368 57.1973 32.248 57.5813 33.304C57.9653 34.328 58.1573 35.256 58.1573 36.088C58.1573 36.568 58.1253 37.352 58.0613 38.44C57.9653 39.304 57.9173 40.216 57.9173 41.176C57.9173 43.416 58.3493 44.792 59.2133 45.304ZM69.8419 41.56C69.8419 42.776 70.0179 43.72 70.3699 44.392C70.7539 45.032 71.2339 45.352 71.8099 45.352C72.1299 45.352 72.4339 45.336 72.7219 45.304C73.0099 45.24 73.2979 45.208 73.5859 45.208C73.9059 45.208 74.1779 45.368 74.4019 45.688C74.6579 46.008 74.7859 46.36 74.7859 46.744C74.7859 47.512 74.4179 48.12 73.6819 48.568C72.9779 48.984 72.0179 49.192 70.8019 49.192C69.9379 49.192 69.0579 48.936 68.1619 48.424C67.2979 47.88 66.5779 47.048 66.0019 45.928C65.4259 44.776 65.1379 43.352 65.1379 41.656C65.1379 38.008 65.2019 34.92 65.3299 32.392C65.4899 29.384 65.5699 25.592 65.5699 21.016C65.5699 19.576 65.6499 18.568 65.8099 17.992C66.0019 17.544 66.3059 17.208 66.7219 16.984C67.1699 16.728 67.6339 16.6 68.1139 16.6C68.5939 16.6 69.0099 16.68 69.3619 16.84C69.7459 17 70.0019 17.256 70.1299 17.608C70.2579 17.992 70.3379 18.376 70.3699 18.76C70.4339 19.112 70.4659 19.624 70.4659 20.296C70.4659 21.608 70.4179 22.872 70.3219 24.088C70.2579 25.56 70.2259 26.632 70.2259 27.304C69.9699 32.936 69.8419 37.688 69.8419 41.56ZM83.4836 58.792C82.2996 58.792 81.2916 58.584 80.4596 58.168C79.6276 57.784 79.0036 57.304 78.5876 56.728C78.2036 56.184 78.0116 55.704 78.0116 55.288C78.0116 54.712 78.2196 54.2 78.6356 53.752C79.0516 53.336 79.5156 53.128 80.0276 53.128C80.3156 53.128 80.5876 53.224 80.8436 53.416C81.1316 53.608 81.3076 53.72 81.3716 53.752C81.5316 53.88 81.7396 54.072 81.9956 54.328C82.2516 54.616 82.5076 54.76 82.7636 54.76C83.4996 54.76 84.0916 54.296 84.5396 53.368C84.9876 52.44 85.4196 50.936 85.8356 48.856C83.7236 45.368 81.7236 41.816 79.8356 38.2C77.9476 34.584 77.0036 32.136 77.0036 30.856C77.0036 30.056 77.2916 29.464 77.8676 29.08C78.4436 28.696 79.0996 28.504 79.8356 28.504C80.3796 28.504 80.8116 28.616 81.1316 28.84C81.4516 29.032 81.7076 29.4 81.8996 29.944C82.7956 32.664 83.7076 35.096 84.6356 37.24C85.5636 39.352 86.6356 41.48 87.8516 43.624C88.4276 42.344 89.1156 40.248 89.9156 37.336C90.3956 35.64 90.8116 34.264 91.1636 33.208C91.5156 32.12 91.9156 31.128 92.3636 30.232C92.6516 29.656 93.0036 29.192 93.4196 28.84C93.8676 28.488 94.3476 28.312 94.8596 28.312C95.4356 28.312 96.0276 28.52 96.6356 28.936C97.2756 29.32 97.5956 29.784 97.5956 30.328C97.5956 30.488 97.4836 30.872 97.2596 31.48C96.0116 34.264 94.9076 36.952 93.9476 39.544C92.9876 42.104 92.0916 44.92 91.2596 47.992C90.7476 49.624 90.2036 51.208 89.6276 52.744C89.0516 54.312 88.6516 55.288 88.4276 55.672C87.7556 56.568 87.0356 57.304 86.2676 57.88C85.4996 58.488 84.5716 58.792 83.4836 58.792Z" fill="white"/>
</svg>
